<?xml version="1.0"?>
<svg xmlns="http://www.w3.org/2000/svg" viewBox="0 0 50 50">
    <path style="line-height:normal;text-indent:0;text-align:start;text-decoration-line:none;text-decoration-style:solid;text-decoration-color:#000;text-transform:none;block-progression:tb;isolation:auto;mix-blend-mode:normal" d="M 22.007812 3 A 1.0001 1.0001 0 0 0 21.009766 4.1425781 C 21.111048 4.8438155 20.898604 5.5532537 20.412109 6.4238281 C 19.925615 7.2944025 19.179431 8.2697758 18.419922 9.3730469 C 16.900903 11.579589 15.32262 14.428207 16.017578 18.181641 C 16.335941 19.899552 17.162641 21.194025 18.242188 22.021484 C 19.321734 22.848944 20.606512 23.217869 21.845703 23.318359 C 23.084895 23.41885 24.290807 23.256619 25.3125 22.964844 C 25.384404 22.94431 25.444594 22.916268 25.511719 22.892578 C 25.193596 24.326587 24.72492 25.887192 24.064453 27.648438 A 1.0001 1.0001 0 1 0 25.935547 28.351562 C 26.738577 26.210149 27.273751 24.295267 27.59375 22.527344 C 27.925452 22.740115 28.300085 22.935118 28.816406 23.039062 C 29.941702 23.265604 31.346452 22.937265 32.669922 21.742188 C 36.08639 18.657061 36.507225 9.1666859 22.396484 3.0820312 A 1.0001 1.0001 0 0 0 22.007812 3 z M 22.876953 5.578125 C 34.74713 11.292277 33.084895 18.673184 31.330078 20.257812 C 30.344548 21.147734 29.75589 21.187834 29.210938 21.078125 C 28.765482 20.988447 28.320247 20.700833 27.884766 20.392578 C 28.226514 16.427676 27.392393 13.161357 25.923828 9.6171875 A 1.0001 1.0001 0 0 0 24.986328 8.9863281 A 1.0001 1.0001 0 0 0 24.076172 10.382812 C 25.529018 13.889048 26.319268 16.809598 25.90625 20.552734 C 25.637508 20.70997 25.269069 20.896685 24.763672 21.041016 C 23.961865 21.269993 22.961668 21.401729 22.005859 21.324219 C 21.050051 21.246709 20.153438 20.965884 19.458984 20.433594 C 18.764531 19.901303 18.224559 19.124948 17.982422 17.818359 C 17.41538 14.755793 18.625925 12.598317 20.066406 10.505859 C 20.786647 9.4596309 21.562057 8.4617381 22.15625 7.3984375 C 22.475222 6.8276408 22.723943 6.2172115 22.876953 5.578125 z M 5 12 C 4.1666667 12 3.4501036 12.385834 2.9179688 12.917969 C 2.3858339 13.450104 2 14.166667 2 15 L 2 28.070312 C 2 29.937648 2.2092639 31.115794 2.6503906 32.03125 C 3.0915173 32.946706 3.692597 33.470333 4.2402344 34.072266 C 5.3127806 35.349691 11.621285 42.909596 12 43.363281 L 12 47 A 1.0001 1.0001 0 1 0 14 47 L 14 43 A 1.0001 1.0001 0 0 0 13.767578 42.359375 C 13.767578 42.359375 6.8343455 34.053638 5.7460938 32.757812 A 1.0001 1.0001 0 0 0 5.71875 32.726562 C 5.0963873 32.042496 4.7075452 31.694153 4.4511719 31.162109 C 4.1947986 30.630066 4 29.786979 4 28.070312 L 4 15 C 4 14.833333 4.1141661 14.549896 4.3320312 14.332031 C 4.5498964 14.114166 4.8333333 14 5 14 C 5.1666667 14 5.4501036 14.114166 5.6679688 14.332031 C 5.8858339 14.549896 6 14.833333 6 15 L 6 27 A 1.0001 1.0001 0 0 0 6.2929688 27.707031 L 7.2734375 28.6875 C 7.33254 29.445396 7.7226446 30.136707 8.2929688 30.707031 C 8.6039573 31.01802 12.228583 34.59893 14.285156 36.699219 A 1.0001 1.0001 0 1 0 15.714844 35.300781 C 13.631417 33.17307 9.9420427 29.52798 9.7070312 29.292969 C 9.3248825 28.91082 9.25 28.666667 9.25 28.5 C 9.25 28.333333 9.3248825 28.08918 9.7070312 27.707031 C 10.08918 27.324882 10.333333 27.25 10.5 27.25 C 10.666667 27.25 10.91082 27.32488 11.292969 27.707031 C 11.753667 28.16773 16.792975 33.197012 17.285156 33.699219 A 1.0001 1.0001 0 0 0 17.300781 33.714844 C 19.304412 35.675805 20 37.476339 20 41 L 20 47 A 1.0001 1.0001 0 1 0 22 47 L 22 41 C 22 37.171661 21.015583 34.55219 18.699219 32.285156 C 18.090254 31.664372 13.155164 26.741102 12.707031 26.292969 C 12.08918 25.675118 11.333333 25.25 10.5 25.25 C 9.6666667 25.25 8.9108198 25.675118 8.2929688 26.292969 C 8.1937235 26.392214 8.1098207 26.501306 8.0214844 26.607422 L 8 26.585938 L 8 15 C 8 14.166667 7.6141661 13.450104 7.0820312 12.917969 C 6.5498964 12.385834 5.8333333 12 5 12 z M 45 12 C 44.166667 12 43.450104 12.385834 42.917969 12.917969 C 42.385834 13.450104 42 14.166667 42 15 L 42 26.585938 L 41.978516 26.607422 C 41.890179 26.501306 41.806276 26.392214 41.707031 26.292969 C 41.08918 25.675118 40.333333 25.25 39.5 25.25 C 38.666667 25.25 37.91082 25.675118 37.292969 26.292969 C 36.844836 26.741102 31.909746 31.664372 31.300781 32.285156 C 28.984417 34.55219 28 37.171661 28 41 L 28 47 A 1.0001 1.0001 0 1 0 30 47 L 30 41 C 30 37.476339 30.695583 35.67581 32.699219 33.714844 A 1.0001 1.0001 0 0 0 32.714844 33.699219 C 33.20702 33.197017 38.246333 28.16773 38.707031 27.707031 C 39.08918 27.324882 39.333333 27.25 39.5 27.25 C 39.666667 27.25 39.91082 27.32488 40.292969 27.707031 C 40.675118 28.08918 40.75 28.333333 40.75 28.5 C 40.75 28.666667 40.67512 28.91082 40.292969 29.292969 C 40.057957 29.52798 36.368583 33.17307 34.285156 35.300781 A 1.0001 1.0001 0 1 0 35.714844 36.699219 C 37.771417 34.59893 41.396043 31.01802 41.707031 30.707031 C 42.277355 30.136707 42.66746 29.445396 42.726562 28.6875 L 43.707031 27.707031 A 1.0001 1.0001 0 0 0 44 27 L 44 15 C 44 14.833333 44.114166 14.549896 44.332031 14.332031 C 44.549896 14.114166 44.833333 14 45 14 C 45.166667 14 45.450104 14.114166 45.667969 14.332031 C 45.885834 14.549896 46 14.833333 46 15 L 46 28.070312 C 46 29.786979 45.805201 30.630066 45.548828 31.162109 C 45.292455 31.694153 44.903613 32.042496 44.28125 32.726562 A 1.0001 1.0001 0 0 0 44.253906 32.757812 C 43.165654 34.053638 36.232422 42.359375 36.232422 42.359375 A 1.0001 1.0001 0 0 0 36 43 L 36 47 A 1.0001 1.0001 0 1 0 38 47 L 38 43.363281 C 38.378715 42.909596 44.687219 35.349691 45.759766 34.072266 C 46.307403 33.470333 46.908483 32.946706 47.349609 32.03125 C 47.790736 31.115794 48 29.937647 48 28.070312 L 48 15 C 48 14.166667 47.614166 13.450104 47.082031 12.917969 C 46.549896 12.385834 45.833333 12 45 12 z" font-weight="400" font-family="sans-serif" white-space="normal" overflow="visible"/>
</svg>
